<svg id="Group_138" data-name="Group 138" xmlns="http://www.w3.org/2000/svg" xmlns:xlink="http://www.w3.org/1999/xlink" width="127.507" height="101.484" viewBox="0 0 127.507 101.484">
  <defs>
    <clipPath id="clip-path">
      <rect id="Rectangle_68" data-name="Rectangle 68" width="127.507" height="101.484" transform="translate(0 0)" fill="#8338ec"/>
    </clipPath>
  </defs>
  <g id="Group_137" data-name="Group 137" clip-path="url(#clip-path)">
    <path id="Path_73" data-name="Path 73" d="M94.424,16.253a31.787,31.787,0,0,0-6.183.624,33.037,33.037,0,0,0-61,8.69c-.627-.052-1.229-.078-1.826-.078C11.4,25.489,0,37.16,0,51.506c0,6.641,2.513,18.478,7.233,23.43a2.421,2.421,0,0,0,1.748.749H48.4a2.415,2.415,0,1,0,0-4.83H10.1C6.984,66.71,4.83,57.434,4.83,51.506c0-11.682,9.236-21.187,20.588-21.187a19.967,19.967,0,0,1,3.32.3,2.439,2.439,0,0,0,2.772-1.947A28.725,28.725,0,0,1,59.5,4.83,28.337,28.337,0,0,1,84.826,20.723a2.41,2.41,0,0,0,2.756,1.257,27.621,27.621,0,0,1,6.842-.9c15.579,0,28.253,13.034,28.253,29.054,0,6.147-1.755,15.8-4.385,20.718H80.013a2.415,2.415,0,1,0,0,4.83h39.645a2.406,2.406,0,0,0,2-1.065c3.815-5.662,5.847-17.857,5.847-24.483,0-18.684-14.841-33.884-33.083-33.884" fill="#8338ec"/>
    <path id="Path_74" data-name="Path 74" d="M65.722,42.156a2.416,2.416,0,0,0-3.935,0L51.017,57.267a2.415,2.415,0,0,0,3.933,2.8l6.39-8.963V99.069a2.415,2.415,0,1,0,4.83,0V51.109l6.387,8.962a2.416,2.416,0,0,0,3.935-2.8Z" fill="#8338ec"/>
  </g>
</svg>
